<mxfile host="65bd71144e">
    <diagram id="Vc4hrVxda1witTbIOSDS" name="Page-1">
        <mxGraphModel dx="1072" dy="616" grid="1" gridSize="10" guides="1" tooltips="1" connect="1" arrows="1" fold="1" page="1" pageScale="1" pageWidth="1600" pageHeight="1200" math="0" shadow="0">
            <root>
                <mxCell id="0"/>
                <mxCell id="1" parent="0"/>
                <mxCell id="2" value="&lt;br&gt;&lt;b&gt;Mobile Application&lt;br&gt;&lt;br&gt;&lt;/b&gt;" style="html=1;align=center;verticalAlign=middle;dashed=0;" vertex="1" parent="1">
                    <mxGeometry x="200" y="40" width="120" height="60" as="geometry"/>
                </mxCell>
                <mxCell id="4" value="&amp;lt;&amp;lt;infrastructure&amp;gt;&amp;gt;&lt;br&gt;&lt;br&gt;&lt;b&gt;Api Gateway&lt;/b&gt;" style="html=1;align=center;verticalAlign=middle;dashed=0;" vertex="1" parent="1">
                    <mxGeometry x="200" y="200" width="120" height="60" as="geometry"/>
                </mxCell>
                <mxCell id="8" value="" style="rounded=0;orthogonalLoop=1;jettySize=auto;html=1;endArrow=none;endFill=0;sketch=0;sourcePerimeterSpacing=0;targetPerimeterSpacing=0;exitX=0.5;exitY=1;exitDx=0;exitDy=0;" edge="1" target="10" parent="1" source="2">
                    <mxGeometry relative="1" as="geometry">
                        <mxPoint x="440" y="105" as="sourcePoint"/>
                    </mxGeometry>
                </mxCell>
                <mxCell id="9" value="" style="rounded=0;orthogonalLoop=1;jettySize=auto;html=1;endArrow=halfCircle;endFill=0;endSize=6;strokeWidth=1;sketch=0;exitX=0.5;exitY=0;exitDx=0;exitDy=0;" edge="1" target="10" parent="1" source="4">
                    <mxGeometry relative="1" as="geometry">
                        <mxPoint x="480" y="105" as="sourcePoint"/>
                        <mxPoint x="260" y="160" as="targetPoint"/>
                        <Array as="points"/>
                    </mxGeometry>
                </mxCell>
                <mxCell id="10" value="" style="ellipse;whiteSpace=wrap;html=1;align=center;aspect=fixed;resizable=0;points=[];outlineConnect=0;sketch=0;" vertex="1" parent="1">
                    <mxGeometry x="255" y="150" width="10" height="10" as="geometry"/>
                </mxCell>
                <mxCell id="13" value="&lt;font style=&quot;font-size: 10px;&quot;&gt;Via Messaging Grid&lt;br&gt;protocol = &quot;HTTP&quot;&lt;/font&gt;" style="text;html=1;strokeColor=none;fillColor=none;align=center;verticalAlign=middle;whiteSpace=wrap;rounded=0;" vertex="1" parent="1">
                    <mxGeometry x="270" y="130" width="60" height="30" as="geometry"/>
                </mxCell>
                <mxCell id="14" value="&lt;br&gt;&lt;b&gt;Auth Service&lt;br&gt;&lt;br&gt;&lt;/b&gt;" style="html=1;align=center;verticalAlign=middle;dashed=0;" vertex="1" parent="1">
                    <mxGeometry x="40" y="310" width="120" height="60" as="geometry"/>
                </mxCell>
                <mxCell id="17" value="" style="rounded=0;orthogonalLoop=1;jettySize=auto;html=1;endArrow=none;endFill=0;sketch=0;sourcePerimeterSpacing=0;exitX=0;exitY=0.5;exitDx=0;exitDy=0;" edge="1" parent="1" source="4" target="16">
                    <mxGeometry relative="1" as="geometry">
                        <mxPoint x="200" y="230" as="sourcePoint"/>
                        <mxPoint x="110" y="230" as="targetPoint"/>
                    </mxGeometry>
                </mxCell>
                <mxCell id="16" value="" style="ellipse;whiteSpace=wrap;html=1;align=center;aspect=fixed;resizable=0;points=[];outlineConnect=0;sketch=0;" vertex="1" parent="1">
                    <mxGeometry x="95" y="225" width="10" height="10" as="geometry"/>
                </mxCell>
                <mxCell id="19" value="" style="rounded=0;orthogonalLoop=1;jettySize=auto;html=1;endArrow=halfCircle;endFill=0;endSize=6;strokeWidth=1;sketch=0;exitX=0.5;exitY=0;exitDx=0;exitDy=0;" edge="1" parent="1" source="14">
                    <mxGeometry relative="1" as="geometry">
                        <mxPoint x="105" y="300" as="sourcePoint"/>
                        <mxPoint x="100" y="240" as="targetPoint"/>
                        <Array as="points">
                            <mxPoint x="100" y="240"/>
                        </Array>
                    </mxGeometry>
                </mxCell>
                <mxCell id="23" value="&lt;font style=&quot;font-size: 10px;&quot;&gt;Issue and get tokens&lt;br&gt;protocol = &quot;HTTP&quot;&lt;/font&gt;" style="text;html=1;strokeColor=none;fillColor=none;align=center;verticalAlign=middle;whiteSpace=wrap;rounded=0;" vertex="1" parent="1">
                    <mxGeometry x="35" y="205" width="60" height="30" as="geometry"/>
                </mxCell>
                <mxCell id="24" value="&lt;br&gt;&lt;b&gt;User Service&lt;br&gt;&lt;br&gt;&lt;/b&gt;" style="html=1;align=center;verticalAlign=middle;dashed=0;" vertex="1" parent="1">
                    <mxGeometry x="125" y="400" width="120" height="60" as="geometry"/>
                </mxCell>
                <mxCell id="28" value="" style="rounded=0;orthogonalLoop=1;jettySize=auto;html=1;endArrow=none;endFill=0;sketch=0;sourcePerimeterSpacing=0;targetPerimeterSpacing=0;exitX=0.082;exitY=1.016;exitDx=0;exitDy=0;exitPerimeter=0;" edge="1" target="30" parent="1" source="4">
                    <mxGeometry relative="1" as="geometry">
                        <mxPoint x="90" y="355" as="sourcePoint"/>
                    </mxGeometry>
                </mxCell>
                <mxCell id="29" value="" style="rounded=0;orthogonalLoop=1;jettySize=auto;html=1;endArrow=halfCircle;endFill=0;entryX=0.5;entryY=0.5;endSize=6;strokeWidth=1;sketch=0;exitX=0.708;exitY=0;exitDx=0;exitDy=0;exitPerimeter=0;" edge="1" target="30" parent="1" source="24">
                    <mxGeometry relative="1" as="geometry">
                        <mxPoint x="130" y="355" as="sourcePoint"/>
                    </mxGeometry>
                </mxCell>
                <mxCell id="30" value="" style="ellipse;whiteSpace=wrap;html=1;align=center;aspect=fixed;resizable=0;points=[];outlineConnect=0;sketch=0;" vertex="1" parent="1">
                    <mxGeometry x="205" y="330" width="10" height="10" as="geometry"/>
                </mxCell>
                <mxCell id="33" value="&lt;font style=&quot;font-size: 10px;&quot;&gt;Register User&lt;br&gt;protocol = &quot;HTTP&quot;&lt;/font&gt;" style="text;html=1;strokeColor=none;fillColor=none;align=center;verticalAlign=middle;whiteSpace=wrap;rounded=0;" vertex="1" parent="1">
                    <mxGeometry x="155" y="300" width="60" height="30" as="geometry"/>
                </mxCell>
                <mxCell id="34" value="" style="rounded=0;orthogonalLoop=1;jettySize=auto;html=1;endArrow=none;endFill=0;sketch=0;sourcePerimeterSpacing=0;targetPerimeterSpacing=0;exitX=0.5;exitY=1;exitDx=0;exitDy=0;" edge="1" target="36" parent="1" source="14">
                    <mxGeometry relative="1" as="geometry">
                        <mxPoint x="170" y="375" as="sourcePoint"/>
                    </mxGeometry>
                </mxCell>
                <mxCell id="35" value="" style="rounded=0;orthogonalLoop=1;jettySize=auto;html=1;endArrow=halfCircle;endFill=0;endSize=6;strokeWidth=1;sketch=0;exitX=0;exitY=0.5;exitDx=0;exitDy=0;" edge="1" parent="1" source="24">
                    <mxGeometry relative="1" as="geometry">
                        <mxPoint x="210" y="375" as="sourcePoint"/>
                        <mxPoint x="100" y="430" as="targetPoint"/>
                    </mxGeometry>
                </mxCell>
                <mxCell id="36" value="" style="ellipse;whiteSpace=wrap;html=1;align=center;aspect=fixed;resizable=0;points=[];outlineConnect=0;sketch=0;" vertex="1" parent="1">
                    <mxGeometry x="95" y="425" width="10" height="10" as="geometry"/>
                </mxCell>
                <mxCell id="37" value="&lt;font style=&quot;font-size: 10px;&quot;&gt;Query User&lt;br&gt;protocol = &quot;HTTP&quot;&lt;/font&gt;" style="text;html=1;strokeColor=none;fillColor=none;align=center;verticalAlign=middle;whiteSpace=wrap;rounded=0;" vertex="1" parent="1">
                    <mxGeometry x="60" y="460" width="60" height="30" as="geometry"/>
                </mxCell>
                <mxCell id="40" value="&lt;b&gt;Group Service&lt;br&gt;&lt;/b&gt;" style="html=1;align=center;verticalAlign=middle;dashed=0;" vertex="1" parent="1">
                    <mxGeometry x="200" y="520" width="120" height="60" as="geometry"/>
                </mxCell>
                <mxCell id="41" value="" style="rounded=0;orthogonalLoop=1;jettySize=auto;html=1;endArrow=none;endFill=0;sketch=0;sourcePerimeterSpacing=0;targetPerimeterSpacing=0;fontSize=10;exitX=0.5;exitY=1;exitDx=0;exitDy=0;entryX=0.5;entryY=0.5;entryDx=0;entryDy=0;entryPerimeter=0;" edge="1" target="46" parent="1" source="4">
                    <mxGeometry relative="1" as="geometry">
                        <mxPoint x="220" y="455" as="sourcePoint"/>
                        <mxPoint x="260" y="430" as="targetPoint"/>
                    </mxGeometry>
                </mxCell>
                <mxCell id="42" value="" style="rounded=0;orthogonalLoop=1;jettySize=auto;html=1;endArrow=halfCircle;endFill=0;endSize=6;strokeWidth=1;sketch=0;fontSize=10;startArrow=none;" edge="1" parent="1">
                    <mxGeometry relative="1" as="geometry">
                        <mxPoint x="260" y="460" as="sourcePoint"/>
                        <mxPoint x="259.83" y="445" as="targetPoint"/>
                        <Array as="points">
                            <mxPoint x="259.83" y="445"/>
                        </Array>
                    </mxGeometry>
                </mxCell>
                <mxCell id="44" value="" style="rounded=0;orthogonalLoop=1;jettySize=auto;html=1;endArrow=none;endFill=0;endSize=6;strokeWidth=1;sketch=0;fontSize=10;exitX=0.5;exitY=0;exitDx=0;exitDy=0;" edge="1" parent="1" source="40">
                    <mxGeometry relative="1" as="geometry">
                        <mxPoint x="260" y="520" as="sourcePoint"/>
                        <mxPoint x="260" y="460" as="targetPoint"/>
                    </mxGeometry>
                </mxCell>
                <mxCell id="46" value="" style="ellipse;whiteSpace=wrap;html=1;align=center;aspect=fixed;resizable=0;points=[];outlineConnect=0;sketch=0;fontSize=10;" vertex="1" parent="1">
                    <mxGeometry x="255" y="435" width="10" height="10" as="geometry"/>
                </mxCell>
                <mxCell id="51" value="&lt;font style=&quot;font-size: 10px;&quot;&gt;Search desired group&lt;br&gt;protocol = &quot;HTTP&quot;&lt;/font&gt;" style="text;html=1;strokeColor=none;fillColor=none;align=center;verticalAlign=middle;whiteSpace=wrap;rounded=0;" vertex="1" parent="1">
                    <mxGeometry x="270" y="450" width="60" height="30" as="geometry"/>
                </mxCell>
            </root>
        </mxGraphModel>
    </diagram>
</mxfile>